<svg id="Capa_1" enable-background="new 0 0 497 497" height="512" viewBox="0 0 497 497" width="512" xmlns="http://www.w3.org/2000/svg"><g><g><path d="m259.113 33.118 26.342 29.599 35.664-17.266c7.65-3.704 16.819.094 19.61 8.123l13.01 37.427 39.556-2.303c8.485-.494 15.503 6.523 15.008 15.008l-2.303 39.556 37.427 13.01c8.028 2.791 11.826 11.959 8.123 19.61l-17.266 35.664 29.599 26.342c6.349 5.651 6.349 15.575 0 21.225l-29.599 26.342 17.266 35.664c3.704 7.65-.094 16.819-8.123 19.609l-37.427 13.01 2.303 39.556c.494 8.485-6.523 15.503-15.008 15.008l-39.556-2.303-13.01 37.427c-2.791 8.028-11.959 11.826-19.61 8.123l-35.664-17.266-26.342 29.599c-5.651 6.349-15.575 6.349-21.225 0l-26.342-29.599-35.664 17.266c-7.65 3.704-16.819-.094-19.61-8.123l-13.01-37.427-39.556 2.303c-8.485.494-15.503-6.523-15.008-15.008l2.303-39.556-37.427-13.01c-8.028-2.791-11.826-11.959-8.123-19.609l17.266-35.664-29.599-26.342c-6.349-5.651-6.349-15.575 0-21.225l29.599-26.342-17.266-35.664c-3.704-7.65.094-16.819 8.123-19.61l37.427-13.01-2.303-39.556c-.494-8.485 6.523-15.503 15.008-15.008l39.556 2.303 13.01-37.427c2.791-8.028 11.959-11.826 19.61-8.123l35.664 17.266 26.342-29.599c5.65-6.349 15.574-6.349 21.225 0z" fill="#ffcf5d"/><g fill="#ffb545"><path d="m463.882 237.887-29.599-26.342 17.266-35.664c3.704-7.65-.094-16.819-8.122-19.61l-37.427-13.01 2.303-39.556c.494-8.485-6.523-15.502-15.008-15.008l-39.556 2.303-13.01-37.427c-2.791-8.028-11.959-11.826-19.61-8.122l-12.819 6.206 17.1 49.194c4.405 12.672 16.694 20.885 30.081 20.099l21.84-1.271-1.272 21.84c-.78 13.394 7.427 25.676 20.099 30.081l20.665 7.183-9.533 19.691c-5.846 12.075-2.964 26.563 7.058 35.482l16.342 14.544-16.342 14.544c-10.022 8.919-12.904 23.407-7.058 35.482l9.533 19.691-20.665 7.183c-12.672 4.405-20.879 16.688-20.099 30.081l1.272 21.84-21.84-1.271c-13.398-.767-25.676 7.428-30.081 20.1l-7.183 20.663-19.691-9.532c-12.076-5.846-26.564-2.964-35.483 7.058l-14.543 16.342-14.544-16.343c-8.919-10.022-23.409-12.905-35.483-7.058l-19.691 9.532-7.183-20.663c-4.405-12.672-16.685-20.866-30.081-20.1l-51.993 3.027-.828 14.217c-.494 8.485 6.523 15.503 15.008 15.009l39.556-2.303 13.01 37.427c2.791 8.029 11.959 11.826 19.61 8.123l35.664-17.265 26.342 29.599c5.651 6.349 15.575 6.349 21.225 0l26.342-29.599 35.664 17.265c7.65 3.704 16.819-.094 19.61-8.123l13.01-37.427 39.556 2.303c8.485.494 15.503-6.523 15.008-15.009l-2.303-39.556 37.427-13.01c8.028-2.791 11.826-11.959 8.122-19.61l-17.266-35.664 29.599-26.342c6.35-5.649 6.35-15.573.001-21.224z"/><circle cx="248.5" cy="248.5" r="142.731"/></g></g><g fill="#3f5f94"><path d="m188.141 219c0 4.143-3.357 7.499-7.5 7.499h-19.997c-4.141 0-7.499-3.356-7.499-7.499s3.357-7.499 7.499-7.499h2.5v-20.424c-2.638.926-5.692.339-7.803-1.771-2.928-2.929-2.928-7.676 0-10.605l10-9.998c2.144-2.146 5.371-2.785 8.171-1.626 2.802 1.161 4.629 3.896 4.629 6.928v37.496h2.499c4.144 0 7.501 3.356 7.501 7.499z"/><path d="m241.697 189.004v14.998c0 12.404-10.091 22.497-22.498 22.497-12.405 0-22.496-10.093-22.496-22.497v-14.998c0-12.405 10.091-22.497 22.496-22.497 12.406-.001 22.498 10.09 22.498 22.497zm-14.998 0c0-4.136-3.364-7.499-7.5-7.499-4.134 0-7.498 3.363-7.498 7.499v14.998c0 4.136 3.364 7.499 7.498 7.499 4.136 0 7.5-3.363 7.5-7.499z"/><path d="m295.275 189.004v14.998c0 12.404-10.091 22.497-22.498 22.497-12.405 0-22.496-10.093-22.496-22.497v-14.998c0-12.405 10.091-22.497 22.496-22.497 12.407-.001 22.498 10.09 22.498 22.497zm-14.998 0c0-4.136-3.364-7.499-7.5-7.499-4.134 0-7.498 3.363-7.498 7.499v14.998c0 4.136 3.364 7.499 7.498 7.499 4.136 0 7.5-3.363 7.5-7.499z"/><path d="m342.909 177.639-24.994 44.99c-1.371 2.466-3.928 3.857-6.563 3.857-1.231 0-2.48-.302-3.635-.942-3.62-2.012-4.924-6.577-2.914-10.197l24.995-44.992c2.011-3.621 6.575-4.925 10.197-2.914 3.621 2.012 4.924 6.577 2.914 10.198zm-39.05-3.643c0-4.143 3.356-7.499 7.499-7.499 4.141 0 7.5 3.356 7.5 7.499 0 4.142-3.359 7.499-7.5 7.499-4.142 0-7.499-3.358-7.499-7.499zm24.997 44.993c0-4.141 3.357-7.498 7.5-7.498 4.141 0 7.499 3.357 7.499 7.498 0 4.143-3.358 7.499-7.499 7.499-4.143 0-7.5-3.357-7.5-7.499z"/></g><g><path d="m482 338.5h-467c-8.284 0-15-6.716-15-15v-60c0-8.284 6.716-15 15-15h467c8.284 0 15 6.716 15 15v60c0 8.284-6.716 15-15 15z" fill="#3f5f94"/><g fill="#ffcf5d"><path d="m69.352 293.499c0 8.014-3.121 15.545-8.787 21.211s-13.198 8.786-21.209 8.786c-16.54 0-29.997-13.456-29.997-29.997 0-16.539 13.457-29.995 29.997-29.995h5.503c4.143 0 7.5 3.356 7.5 7.498 0 4.144-3.356 7.5-7.5 7.5h-5.503c-8.271 0-14.998 6.729-14.998 14.997 0 8.271 6.728 14.999 14.998 14.999 4.005 0 7.771-1.561 10.606-4.393.94-.942 1.742-1.984 2.39-3.106h-3.491c-4.142 0-7.5-3.356-7.5-7.5 0-4.142 3.357-7.498 7.5-7.498h12.993c4.143 0 7.498 3.357 7.498 7.498z"/><path d="m126.325 271.002v27.147c0 13.978-11.437 25.347-25.496 25.347-14.061 0-25.497-11.369-25.497-25.347v-27.147c0-4.142 3.357-7.498 7.499-7.498 4.141 0 7.5 3.356 7.5 7.498v27.147c0 5.706 4.709 10.349 10.499 10.349 5.789 0 10.499-4.643 10.499-10.349v-27.147c0-4.142 3.357-7.498 7.5-7.498 4.138 0 7.496 3.357 7.496 7.498z"/><path d="m173.842 323.018c-.868.326-1.757.479-2.632.479-3.036 0-5.893-1.856-7.021-4.867l-.988-2.633h-17.728l-.987 2.633c-1.456 3.878-5.776 5.839-9.656 4.388-3.876-1.453-5.843-5.775-4.388-9.654l16.873-44.995c1.097-2.926 3.896-4.864 7.021-4.864s5.923 1.938 7.021 4.864l16.872 44.995c1.454 3.878-.51 8.2-4.387 9.654zm-16.268-22.019-3.239-8.64-3.24 8.64z"/><path d="m229.532 310.718c2.915 2.94 2.895 7.689-.045 10.605-1.463 1.449-3.372 2.174-5.28 2.174-1.93 0-3.86-.739-5.325-2.219l-12.673-12.779h-3.999v7.499c0 4.143-3.359 7.499-7.5 7.499s-7.499-3.356-7.499-7.499v-44.995c0-4.142 3.357-7.498 7.499-7.498h14.625c12.335 0 22.371 10.093 22.371 22.497 0 7.318-3.495 13.829-8.894 17.94zm-12.824-24.717c0-4.136-3.308-7.499-7.372-7.499h-7.125v14.997h7.125c4.064 0 7.372-3.363 7.372-7.498z"/><path d="m284.075 323.018c-.868.326-1.757.479-2.632.479-3.036 0-5.893-1.856-7.021-4.867l-.988-2.633h-17.728l-.987 2.633c-1.456 3.878-5.776 5.839-9.656 4.388-3.876-1.453-5.843-5.775-4.388-9.654l16.873-44.995c1.097-2.926 3.896-4.864 7.021-4.864s5.923 1.938 7.021 4.864l16.872 44.995c1.454 3.878-.51 8.2-4.387 9.654zm-16.268-22.019-3.239-8.64-3.24 8.64z"/><path d="m345.44 271.002v44.995c0 3.242-2.084 6.119-5.167 7.127-.769.251-1.554.373-2.333.373-2.344 0-4.608-1.101-6.048-3.064l-19.449-26.521v22.087c0 4.143-3.359 7.499-7.5 7.499s-7.499-3.356-7.499-7.499v-44.995c0-3.241 2.083-6.118 5.166-7.126 3.082-1.01 6.462.078 8.38 2.691l19.45 26.521v-22.088c0-4.142 3.357-7.498 7.498-7.498 4.143 0 7.501 3.357 7.502 7.498z"/><path d="m398.708 271.002c0 4.144-3.357 7.5-7.499 7.5h-9.5v37.495c0 4.143-3.357 7.499-7.499 7.499-4.141 0-7.499-3.356-7.499-7.499v-37.495h-9.499c-4.142 0-7.5-3.356-7.5-7.5 0-4.142 3.357-7.498 7.5-7.498h33.996c4.142 0 7.5 3.356 7.5 7.498z"/><path d="m441.107 315.997c0 4.143-3.356 7.499-7.499 7.499h-22.997c-4.141 0-7.499-3.356-7.499-7.499v-44.995c0-4.142 3.357-7.498 7.499-7.498h22.997c4.142 0 7.499 3.356 7.499 7.498 0 4.144-3.356 7.5-7.499 7.5h-15.498v7.499h9.499c4.142 0 7.498 3.356 7.498 7.498 0 4.144-3.356 7.5-7.498 7.5h-9.499v7.499h15.498c4.143 0 7.499 3.356 7.499 7.499z"/><path d="m487.641 315.997c0 4.143-3.356 7.499-7.499 7.499h-22.997c-4.141 0-7.499-3.356-7.499-7.499v-44.995c0-4.142 3.357-7.498 7.499-7.498h22.997c4.142 0 7.499 3.356 7.499 7.498 0 4.144-3.356 7.5-7.499 7.5h-15.498v7.499h9.499c4.142 0 7.498 3.356 7.498 7.498 0 4.144-3.356 7.5-7.498 7.5h-9.499v7.499h15.498c4.142 0 7.499 3.356 7.499 7.499z"/></g></g></g></svg>