<svg xmlns="http://www.w3.org/2000/svg" xmlns:xlink="http://www.w3.org/1999/xlink" id="Capa_1" x="0" y="0" version="1.1" viewBox="0 0 512 512" xml:space="preserve" style="enable-background:new 0 0 512 512"><polygon style="fill:#a0e557" points="394.808 24 326.372 177.218 357.387 177.218 308.71 266.999 331.993 266.999 256 387.618 502.926 387.618 457.625 266.999 502 266.999 432.23 177.218 478.884 177.218"/><path style="fill:#ffc66c" d="M118.878,152.455C118.878,73.779,180.269,10,256,10s137.122,63.779,137.122,142.455	c0,34.105-11.542,65.406-30.782,89.931h0.009L256,384L150.158,243.128h0.08C130.648,218.495,118.878,186.903,118.878,152.455z"/><polygon style="fill:#a0e557" points="123.598 164.099 106.137 133.857 45.283 239.26 72.862 239.26 29.578 314.23 50.282 314.23 10 384 202.275 384 161.993 314.23 182.697 314.23 139.412 239.26 166.992 239.26 152.755 214.602"/><circle style="fill:#fff" cx="256" cy="149.31" r="64"/><path d="M10,394h192.275c3.572,0,6.874-1.906,8.66-5c1.786-3.094,1.786-6.906,0-10l-31.622-54.77h3.383c3.572,0,6.874-1.906,8.66-5	c1.786-3.094,1.786-6.906,0-10l-34.624-59.971h10.259c3.572,0,6.874-1.906,8.66-5s1.786-6.906,0-10l-43.394-75.161l-3.201-5.544	v-8.183c1.054-20.9,6.646-40.671,16.621-58.771c2.666-4.837,0.906-10.919-3.931-13.585c-4.838-2.667-10.919-0.907-13.585,3.931	c-8.23,14.932-13.95,31.364-16.917,48.322c-1.521-0.905-3.277-1.412-5.108-1.412c-3.572,0-6.874,1.906-8.66,5L36.623,234.26	c-1.786,3.094-1.786,6.906,0,10s5.088,5,8.66,5h10.259l-34.624,59.971c-1.786,3.094-1.786,6.906,0,10s5.088,5,8.66,5h3.383L1.34,379	c-1.786,3.094-1.786,6.906,0,10S6.428,394,10,394z M58.941,319.231c1.786-3.094,1.786-6.906,0-10s-5.088-5-8.66-5h-3.383	l34.624-59.971c1.786-3.094,1.786-6.906,0-10s-5.088-5-8.66-5H62.604l43.533-75.403l43.534,75.403h-10.259	c-3.572,0-6.874,1.906-8.66,5s-1.786,6.906,0,10l34.624,59.971h-3.383c-3.572,0-6.874,1.906-8.66,5c-1.786,3.094-1.786,6.906,0,10	L184.955,374h-68.817v-15.208c0-0.003,0-0.007,0-0.01v-32.707l22.302-22.301c3.905-3.905,3.905-10.237,0-14.142	s-10.235-3.905-14.143,0l-8.159,8.159v-55.455c0-5.523-4.478-10-10-10s-10,4.477-10,10v31.98c-3.773-1.979-8.543-1.383-11.715,1.788	c-3.905,3.905-3.905,10.237,0,14.142l11.715,11.714v32.686l-7.224-7.224c-3.904-3.905-10.234-3.905-14.143,0	c-3.905,3.905-3.905,10.237,0,14.142l21.366,21.367V374H27.32L58.941,319.231z"/><path d="M10,453h58.401c5.522,0,10-4.477,10-10s-4.478-10-10-10H10c-5.522,0-10,4.477-10,10S4.478,453,10,453z"/><path d="M118.399,433c-5.522,0-10,4.477-10,10s4.478,10,10,10H176.8c5.522,0,10-4.477,10-10s-4.478-10-10-10H118.399z"/><path d="M285.201,433h-58.402c-5.522,0-10,4.477-10,10s4.478,10,10,10h58.402c5.522,0,10-4.477,10-10S290.724,433,285.201,433z"/><path d="M335.199,433c-5.522,0-10,4.477-10,10s4.478,10,10,10H393.6c5.522,0,10-4.477,10-10s-4.478-10-10-10H335.199z"/><path d="M502,433h-58.401c-5.522,0-10,4.477-10,10s4.478,10,10,10H502c5.522,0,10-4.477,10-10S507.522,433,502,433z"/><path d="M161.114,59.614c2.56,0,5.118-0.976,7.071-2.929l0.228-0.226c3.936-3.875,3.985-10.206,0.11-14.142	c-3.873-3.935-10.205-3.985-14.142-0.11l-0.339,0.335c-3.905,3.905-3.905,10.237,0,14.143	C155.996,58.638,158.555,59.614,161.114,59.614z"/><path d="M193.951,36.823C212.797,25.817,234.253,20,256,20c70.096,0,127.122,59.419,127.122,132.455	c0,30.463-10.175,60.209-28.65,83.759c-0.125,0.16-0.245,0.323-0.36,0.49L255.998,367.35l-26.308-35.015	c-3.318-4.415-9.587-5.307-14.002-1.988c-4.415,3.317-5.306,9.586-1.988,14.001l34.305,45.658c1.89,2.514,4.852,3.994,7.996,3.993	c3.146,0,6.106-1.48,7.995-3.995l106.35-141.614c0.039-0.052,0.078-0.104,0.116-0.157c21.065-27.003,32.66-60.999,32.66-95.779	c0-30.302-8.578-58.567-23.347-82.327l13.82-25.281L462.02,170h-18.421c-3.594,0-6.911,1.928-8.689,5.051	c-1.778,3.123-1.745,6.96,0.089,10.051L479.428,260h-17.439c-3.242,0-6.283,1.572-8.158,4.217c-1.875,2.645-2.352,6.035-1.277,9.094	L487.893,374h-81.601l45.925-45.925c3.905-3.905,3.905-10.237,0-14.143c-3.906-3.905-10.236-3.905-14.143,0l-34.471,34.471	l-0.004-39.259l23.442-23.442c3.905-3.905,3.905-10.237,0-14.143c-3.906-3.905-10.236-3.905-14.143,0l-9.302,9.302l-0.002-24.863	c-0.001-5.523-4.479-10-10.001-9.999s-10,4.478-9.999,10.001l0.005,58.677l-12.513-12.514c-3.904-3.905-10.234-3.905-14.143,0	c-3.905,3.905-3.905,10.237,0,14.142l26.659,26.659L383.606,374h-46.273c-5.522,0-10,4.477-10,10s4.478,10,10,10H502	c3.242,0,6.283-1.572,8.158-4.217c1.875-2.645,2.352-6.035,1.277-9.094L476.096,280h20.892c3.594,0,6.911-1.928,8.689-5.051	c1.778-3.123,1.745-6.96-0.089-10.051L461.158,190h17.726c3.531,0,6.801-1.862,8.602-4.899c1.801-3.038,1.866-6.799,0.173-9.898	l-85.289-156c-1.755-3.208-5.12-5.203-8.775-5.203c-3.656,0-7.021,1.996-8.774,5.204L366.766,52.23C339.777,20.242,300.129,0,256,0	c-25.287,0-50.231,6.761-72.135,19.552c-4.769,2.785-6.378,8.909-3.593,13.678C183.057,37.999,189.179,39.608,193.951,36.823z"/><path d="M330,149.311c0-40.804-33.196-74-74-74s-74,33.196-74,74s33.196,74,74,74S330,190.114,330,149.311z M202,149.311	c0-29.776,24.225-54,54-54s54,24.224,54,54s-24.225,54-54,54S202,179.086,202,149.311z"/><path d="M303,394c2.63,0,5.21-1.07,7.069-2.93c1.86-1.86,2.931-4.44,2.931-7.07s-1.07-5.21-2.931-7.07	C308.21,375.07,305.63,374,303,374c-2.641,0-5.21,1.07-7.07,2.93c-1.86,1.86-2.93,4.44-2.93,7.07s1.069,5.21,2.93,7.07	S300.37,394,303,394z"/><path d="M502,492H10c-5.522,0-10,4.477-10,10s4.478,10,10,10h492c5.522,0,10-4.477,10-10S507.522,492,502,492z"/></svg>