<svg height="512pt" viewBox="-60 0 512 512" width="512pt" xmlns="http://www.w3.org/2000/svg"><path d="m281.601562 59.734375h-273.066406v401.066406h273.066406zm0 0" fill="#28384c"/><path d="m281.601562 76.800781h-273.066406v-46.53125c0-12.007812 9.726563-21.734375 21.734375-21.734375h229.605469c11.996094 0 21.726562 9.726563 21.726562 21.734375zm0 0" fill="#e7eced"/><path d="m259.867188 503.464844h-229.597657c-12.007812 0-21.734375-9.726563-21.734375-21.734375v-46.53125h273.066406v46.53125c0 12.007812-9.730468 21.734375-21.734374 21.734375zm0 0" fill="#e7eced"/><path d="m179.199219 469.332031c0 18.851563-15.28125 34.132813-34.132813 34.132813-18.851562 0-34.132812-15.28125-34.132812-34.132813 0-18.851562 15.28125-34.132812 34.132812-34.132812 18.851563 0 34.132813 15.28125 34.132813 34.132812zm0 0" fill="#afb6bb"/><path d="m110.933594 153.601562v204.796876c0 9.429687 7.644531 17.066406 17.066406 17.066406h238.933594c9.429687 0 17.066406-7.644532 17.066406-17.066406v-204.796876c0-9.429687-7.644531-17.066406-17.066406-17.066406h-238.933594c-9.421875 0-17.066406 7.644532-17.066406 17.066406zm0 0" fill="#366db6"/><path d="m42.667969 136.535156h34.132812v34.132813h-34.132812zm0 0" fill="#dd352e"/><path d="m42.667969 341.332031h34.132812v34.132813h-34.132812zm0 0" fill="#cb465f"/><path d="m42.667969 273.066406h34.132812v34.132813h-34.132812zm0 0" fill="#75348b"/><path d="m42.667969 204.800781h34.132812v34.132813h-34.132812zm0 0" fill="#ebba16"/><g fill="#4d007e"><path d="m281.601562 85.332031h-273.066406c-4.710937 0-8.535156-3.820312-8.535156-8.53125v-46.53125c0-16.691406 13.578125-30.269531 30.269531-30.269531h229.605469c16.683594 0 30.257812 13.578125 30.257812 30.269531v46.53125c0 4.710938-3.824218 8.53125-8.53125 8.53125zm-264.535156-17.066406h256v-37.996094c0-7.28125-5.921875-13.203125-13.199218-13.203125h-229.597657c-7.28125 0-13.203125 5.921875-13.203125 13.203125zm0 0"/><path d="m259.867188 512h-229.597657c-16.691406 0-30.269531-13.578125-30.269531-30.269531v-46.53125c0-4.710938 3.824219-8.53125 8.535156-8.53125h273.066406c4.707032 0 8.53125 3.820312 8.53125 8.53125v46.53125c0 16.691406-13.574218 30.269531-30.265624 30.269531zm-242.800782-68.265625v37.996094c0 7.28125 5.921875 13.203125 13.203125 13.203125h229.605469c7.269531 0 13.191406-5.921875 13.191406-13.203125v-37.996094zm0 0"/><path d="m145.066406 512c-23.527344 0-42.667968-19.140625-42.667968-42.667969 0-23.523437 19.140624-42.664062 42.667968-42.664062s42.667969 19.140625 42.667969 42.664062c0 23.527344-19.140625 42.667969-42.667969 42.667969zm0-68.265625c-14.113281 0-25.601562 11.484375-25.601562 25.597656 0 14.117188 11.488281 25.601563 25.601562 25.601563 14.113282 0 25.601563-11.484375 25.601563-25.601563 0-14.113281-11.488281-25.597656-25.601563-25.597656zm0 0"/><path d="m170.667969 51.199219h-51.203125c-4.707032 0-8.53125-3.820313-8.53125-8.53125 0-4.710938 3.824218-8.535157 8.53125-8.535157h51.203125c4.710937 0 8.53125 3.824219 8.53125 8.535157 0 4.710937-3.820313 8.53125-8.53125 8.53125zm0 0"/><path d="m366.933594 384h-238.933594c-14.113281 0-25.601562-11.484375-25.601562-25.601562v-204.796876c0-14.117187 11.488281-25.601562 25.601562-25.601562h238.933594c14.113281 0 25.601562 11.484375 25.601562 25.601562v204.796876c0 14.117187-11.488281 25.601562-25.601562 25.601562zm-238.933594-238.933594c-4.710938 0-8.535156 3.832032-8.535156 8.535156v204.796876c0 4.710937 3.832031 8.535156 8.535156 8.535156h238.933594c4.710937 0 8.53125-3.832032 8.53125-8.535156v-204.796876c0-4.710937-3.828125-8.535156-8.53125-8.535156zm0 0"/><path d="m76.800781 179.199219h-34.132812c-4.710938 0-8.535157-3.820313-8.535157-8.53125v-34.132813c0-4.710937 3.824219-8.535156 8.535157-8.535156h34.132812c4.710938 0 8.53125 3.824219 8.53125 8.535156v34.132813c0 4.710937-3.820312 8.53125-8.53125 8.53125zm-25.601562-17.066407h17.066406v-17.066406h-17.066406zm0 0"/><path d="m76.800781 384h-34.132812c-4.710938 0-8.535157-3.824219-8.535157-8.535156v-34.132813c0-4.710937 3.824219-8.53125 8.535157-8.53125h34.132812c4.710938 0 8.53125 3.820313 8.53125 8.53125v34.132813c0 4.710937-3.820312 8.535156-8.53125 8.535156zm-25.601562-17.066406h17.066406v-17.066406h-17.066406zm0 0"/><path d="m76.800781 315.734375h-34.132812c-4.710938 0-8.535157-3.824219-8.535157-8.535156v-34.132813c0-4.710937 3.824219-8.53125 8.535157-8.53125h34.132812c4.710938 0 8.53125 3.820313 8.53125 8.53125v34.132813c0 4.710937-3.820312 8.535156-8.53125 8.535156zm-25.601562-17.066406h17.066406v-17.066407h-17.066406zm0 0"/><path d="m76.800781 247.464844h-34.132812c-4.710938 0-8.535157-3.820313-8.535157-8.53125v-34.132813c0-4.710937 3.824219-8.535156 8.535157-8.535156h34.132812c4.710938 0 8.53125 3.824219 8.53125 8.535156v34.132813c0 4.710937-3.820312 8.53125-8.53125 8.53125zm-25.601562-17.066406h17.066406v-17.066407h-17.066406zm0 0"/><path d="m259.867188 512h-229.597657c-16.691406 0-30.269531-13.578125-30.269531-30.269531v-451.460938c0-16.691406 13.578125-30.269531 30.269531-30.269531h229.597657c16.691406 0 30.265624 13.578125 30.265624 30.269531v106.265625c0 4.707032-3.824218 8.53125-8.53125 8.53125h-153.601562c-4.710938 0-8.535156 3.832032-8.535156 8.535156v204.796876c0 4.710937 3.832031 8.535156 8.535156 8.535156h153.601562c4.707032 0 8.53125 3.824218 8.53125 8.53125v106.265625c0 16.691406-13.574218 30.269531-30.265624 30.269531zm-229.597657-494.933594c-7.28125 0-13.203125 5.921875-13.203125 13.203125v451.460938c0 7.28125 5.921875 13.203125 13.203125 13.203125h229.597657c7.277343 0 13.199218-5.921875 13.199218-13.203125v-97.730469h-145.066406c-14.113281 0-25.601562-11.484375-25.601562-25.601562v-204.796876c0-14.117187 11.488281-25.601562 25.601562-25.601562h145.066406v-97.730469c0-7.28125-5.921875-13.203125-13.199218-13.203125zm0 0"/><path d="m170.667969 281.601562c-4.710938 0-8.535157-3.824218-8.535157-8.535156 0-4.710937 3.824219-8.53125 8.535157-8.53125 9.15625 0 16.648437-7.246094 17.046875-16.308594l-5.210938-26.09375c-2.835937-14.167968.449219-28.957031 9.019532-40.558593 8.105468-10.992188 19.855468-17.792969 33.074218-19.152344 1.859375-.1875 3.796875-.289063 5.800782-.289063 4.710937 0 8.535156 3.824219 8.535156 8.535157 0 4.710937-3.824219 8.53125-8.535156 8.53125-1.40625 0-2.753907.070312-4.050782.195312-8.378906.863281-15.871094 5.234375-21.085937 12.308594-5.71875 7.753906-7.910157 17.621094-6.027344 27.082031l5.402344 27.007813c.105469.554687.164062 1.109375.164062 1.671875 0 18.828125-15.308593 34.136718-34.132812 34.136718zm0 0"/><path d="m315.734375 230.398438c-4.710937 0-8.535156-3.820313-8.535156-8.53125 0-41.949219-49.125-42.660157-51.214844-42.667969-4.710937-.015625-8.519531-3.847657-8.507813-8.550781.007813-4.710938 3.820313-8.515626 8.523438-8.515626 23.613281 0 68.265625 12.484376 68.265625 59.734376 0 4.710937-3.820313 8.53125-8.53125 8.53125zm0 0"/><path d="m290.140625 349.867188c-2.753906 0-5.460937-1.332032-7.105469-3.796876-2.613281-3.917968-1.554687-9.226562 2.363282-11.835937 15.855468-10.574219 21.785156-58.828125 21.800781-86.769531 0-4.707032 3.824219-8.53125 8.535156-8.53125s8.53125 3.824218 8.53125 8.53125c0 8.332031-.828125 81.921875-29.394531 100.96875-1.460938.972656-3.109375 1.433594-4.730469 1.433594zm0 0"/><path d="m179.199219 324.265625c-4.710938 0-8.53125-3.820313-8.53125-8.53125s3.820312-8.535156 8.53125-8.535156c33.589843 0 34.125-49.117188 34.132812-51.207031.019531-4.703126 3.832031-8.515626 8.535157-8.515626h.007812c4.710938 0 8.523438 3.8125 8.523438 8.523438 0 23.613281-10.699219 68.265625-51.199219 68.265625zm0 0"/><path d="m221.875 341.332031c-3.132812 0-6.144531-1.722656-7.636719-4.71875-2.109375-4.214843-.402343-9.34375 3.8125-11.449219 24.132813-12.066406 29.414063-60.179687 29.414063-77.699218 0-4.707032 3.824218-8.53125 8.535156-8.53125s8.535156 3.824218 8.535156 8.53125c0 3.003906-.445312 73.765625-38.855468 92.972656-1.21875.605469-2.523438.894531-3.804688.894531zm0 0"/><path d="m290.132812 273.066406c-4.710937 0-8.53125-3.824218-8.53125-8.53125 0-49.664062-24.707031-51.167968-25.753906-51.203125-18.824218 0-25.617187 19.003907-25.898437 19.816407-1.539063 4.429687-6.375 6.808593-10.820313 5.308593-4.449218-1.511719-6.84375-6.300781-5.359375-10.753906.433594-1.289063 10.84375-31.4375 42.230469-31.4375 1.742188 0 42.667969.777344 42.667969 68.269531 0 4.707032-3.824219 8.53125-8.535157 8.53125zm0 0"/><path d="m256.007812 349.867188c-2.753906 0-5.460937-1.332032-7.109374-3.796876-2.609376-3.917968-1.550782-9.226562 2.367187-11.835937 21.554687-14.371094 21.800781-35.363281 21.800781-35.566406 0-4.710938 3.824219-8.535157 8.535156-8.535157 4.707032 0 8.53125 3.824219 8.53125 8.535157 0 1.234375-.332031 30.394531-29.398437 49.765625-1.457031.972656-3.105469 1.433594-4.726563 1.433594zm0 0"/></g></svg>